<svg xmlns="http://www.w3.org/2000/svg" version="1.0" width="500.000000pt" height="378.000000pt" viewBox="0 0 500.000000 378.000000" preserveAspectRatio="xMidYMid meet">

<g transform="translate(0.000000,378.000000) scale(0.100000,-0.100000)" fill="#ccc3cc" stroke="none">
<path d="M239 1779 c-107 -226 -195 -417 -197 -425 -3 -11 19 -14 116 -14 l120 0 22 55 22 55 160 0 159 0 24 -55 25 -55 121 0 c72 0 119 4 117 10 -2 5 -91 196 -198 424 l-195 416 -51 0 -50 0 -195 -411z m292 -61 l28 -78 -74 0 c-41 0 -75 3 -75 7 0 4 17 50 37 102 32 84 37 92 46 70 5 -13 22 -59 38 -101z" fill="#ccc3cc"/>
<path d="M1030 1765 l0 -425 110 0 110 0 0 213 0 212 212 -212 c210 -211 212 -213 255 -213 l43 0 0 425 0 426 -107 -3 -108 -3 2 -202 c0 -112 -2 -203 -5 -203 -3 0 -99 92 -212 205 l-207 205 -46 0 -47 0 0 -425z" fill="#ccc3cc"/>
<path d="M1880 2179 c0 -6 84 -200 186 -430 l186 -419 48 0 c41 0 48 3 60 28 54 118 360 817 360 823 0 5 -53 9 -119 9 l-118 0 -55 -132 c-31 -73 -71 -179 -89 -235 -18 -57 -36 -103 -39 -103 -3 0 -20 44 -38 99 -18 54 -59 159 -90 232 l-58 134 -117 3 c-84 2 -117 -1 -117 -9z" fill="#ccc3cc"/>
<path d="M2879 1779 c-107 -226 -195 -417 -197 -425 -3 -11 19 -14 116 -14 l120 0 22 55 22 55 160 0 159 0 24 -55 25 -55 121 0 c72 0 119 4 117 10 -1 5 -91 196 -198 424 l-195 416 -51 0 -50 0 -195 -411z m292 -61 l28 -78 -74 0 c-41 0 -75 3 -75 7 0 4 17 50 37 102 32 84 37 92 46 70 5 -13 22 -59 38 -101z" fill="#ccc3cc"/>
<path d="M3680 1765 l0 -425 110 0 110 0 0 425 0 425 -110 0 -110 0 0 -425z" fill="#ccc3cc"/>
<path d="M4110 1765 l0 -425 110 0 110 0 0 213 0 212 212 -212 c210 -211 212 -213 255 -213 l43 0 0 425 0 426 -107 -3 -108 -3 2 -202 c0 -112 -2 -203 -5 -203 -3 0 -99 92 -212 205 l-207 205 -46 0 -47 0 0 -425z" fill="#ccc3cc"/>
</g>
</svg>